<?xml version="1.0" encoding="utf-8"?>
<!-- Generator: Adobe Illustrator 16.0.0, SVG Export Plug-In . SVG Version: 6.00 Build 0)  -->
<!DOCTYPE svg PUBLIC "-//W3C//DTD SVG 1.1//EN" "http://www.w3.org/Graphics/SVG/1.1/DTD/svg11.dtd">
<svg version="1.1" id="Layer_1" xmlns="http://www.w3.org/2000/svg" xmlns:xlink="http://www.w3.org/1999/xlink" x="0px" y="0px"
	 width="512px" height="101px" viewBox="0 0 512 101" enable-background="new 0 0 512 101" xml:space="preserve">
<g>
	<path fill="#FFFFFF" d="M98.682,100.232H70.169L47.63,59.695l-10.473,9.1l-7.233,31.438H3.948L27.009-0.022h25.977L42.821,44.169
		L88.106-0.022h30.707l-50.65,46.66L98.682,100.232z"/>
	<path fill="#FFFFFF" d="M210.989,25.227c0,8.036-2.448,14.791-7.342,20.267c-4.894,5.478-11.54,9.606-19.937,12.389l23.172,42.351
		h-28.858l-18.886-36.762h-14.521l-8.512,36.762h-25.842L133.394-0.022h39.135c12.258,0,21.733,2.077,28.424,6.228
		C207.644,10.358,210.989,16.699,210.989,25.227z M183.114,29.576c0-4.029-1.291-6.884-3.873-8.563
		c-2.582-1.679-6.387-2.519-11.416-2.519H155.03l-6.235,26.932h12.718c6.863,0,12.18-1.399,15.949-4.197
		C181.23,38.43,183.114,34.546,183.114,29.576z"/>
	<path fill="#FFFFFF" d="M313.938-0.022l-4.377,19.054H262.77l-4.136,17.843h43.386l-4.438,19.055h-43.365l-5.854,25.248h46.722
		l-4.31,19.055h-72.649L241.257-0.022H313.938z"/>
	<path fill="#FFFFFF" d="M384.701,100.232h-72.38L335.452-0.022h25.978l-18.655,80.864h46.438L384.701,100.232z"/>
	<path fill="#FFFFFF" d="M508.186,39.097c0,11.356-2.986,21.839-8.955,31.443c-5.971,9.606-13.624,16.968-22.96,22.085
		c-5.655,3.053-11.559,5.083-17.708,6.093c-6.149,1.011-13.511,1.515-22.084,1.515h-36.291L423.318-0.022h32.465
		c9.564,0,17.266,0.741,23.103,2.222c5.837,1.481,10.553,3.479,14.146,5.993c4.938,3.412,8.699,7.665,11.28,12.759
		C506.894,26.046,508.186,32.095,508.186,39.097z M481.118,41.454c0-4.579-0.852-8.518-2.555-11.817
		c-1.705-3.299-4.305-5.958-7.801-7.979c-1.614-0.897-3.262-1.582-4.943-2.054c-1.681-0.471-3.598-0.818-5.749-1.043
		c-2.062-0.179-4.416-0.269-7.062-0.269c-2.645,0-4.954,0-6.925,0h-0.875l-14.801,63.56h2.354c2.601,0,5.38,0,8.34,0
		c2.959,0,5.357-0.111,7.196-0.336c2.376-0.225,4.517-0.584,6.423-1.078c1.905-0.493,4.001-1.323,6.288-2.49
		c6.456-3.322,11.422-8.282,14.896-14.881C479.381,56.469,481.118,49.264,481.118,41.454z"/>
</g>
</svg>
